<svg id="Capa_1" enable-background="new 0 0 512 512" viewBox="0 0 512 512" xmlns="http://www.w3.org/2000/svg" xmlns:xlink="http://www.w3.org/1999/xlink"><linearGradient id="lg1"><stop offset="0" stop-color="#5a5a5a"/><stop offset="1" stop-color="#444"/></linearGradient><linearGradient id="SVGID_1_" gradientUnits="userSpaceOnUse" x1="131.922" x2="149.243" xlink:href="#lg1" y1="459.276" y2="474.64"/><linearGradient id="lg2"><stop offset="0" stop-color="#433f43" stop-opacity="0"/><stop offset="1" stop-color="#1a1a1a"/></linearGradient><linearGradient id="SVGID_00000026845453201199027880000000718083446171906734_" gradientUnits="userSpaceOnUse" x1="128.039" x2="155.975" xlink:href="#lg2" y1="432.854" y2="486.77"/><linearGradient id="SVGID_00000093869593790480013160000016807228752134733469_" gradientUnits="userSpaceOnUse" x1="123.382" x2="123.382" xlink:href="#lg1" y1="490.665" y2="509.191"/><linearGradient id="SVGID_00000026121013761583677060000011675660547884745648_" gradientUnits="userSpaceOnUse" x1="150.498" x2="167.189" xlink:href="#lg2" y1="504.836" y2="513.267"/><linearGradient id="SVGID_00000047030195686383540180000011625820936487780527_" gradientUnits="userSpaceOnUse" x1="123.382" x2="123.382" xlink:href="#lg2" y1="501.16" y2="512.752"/><linearGradient id="SVGID_00000073712658871737946510000011537648888144600765_" gradientTransform="matrix(-1 0 0 1 690.632 0)" gradientUnits="userSpaceOnUse" x1="310.554" x2="327.875" xlink:href="#lg1" y1="459.276" y2="474.64"/><linearGradient id="SVGID_00000104700091199364725910000006509481826537299083_" gradientTransform="matrix(-1 0 0 1 690.632 0)" gradientUnits="userSpaceOnUse" x1="306.671" x2="334.607" xlink:href="#lg2" y1="432.854" y2="486.77"/><linearGradient id="SVGID_00000043442041354165860790000010935636402457343130_" gradientUnits="userSpaceOnUse" x1="388.618" x2="388.618" xlink:href="#lg1" y1="490.665" y2="509.191"/><linearGradient id="SVGID_00000140709120810495562880000007460989402136129948_" gradientUnits="userSpaceOnUse" x1="415.735" x2="432.425" xlink:href="#lg2" y1="504.836" y2="513.267"/><linearGradient id="SVGID_00000104668238429010161120000001746275117644119482_" gradientUnits="userSpaceOnUse" x1="388.618" x2="388.618" xlink:href="#lg2" y1="501.16" y2="512.752"/><linearGradient id="lg3"><stop offset="0" stop-color="#f5fbff"/><stop offset="1" stop-color="#dbd5ef"/></linearGradient><linearGradient id="SVGID_00000020376846123459644790000017360848058792880554_" gradientUnits="userSpaceOnUse" x1="256" x2="256" xlink:href="#lg3" y1="5.852" y2="60.557"/><linearGradient id="lg4"><stop offset="0" stop-color="#ffa1ae"/><stop offset="1" stop-color="#ff4565"/></linearGradient><linearGradient id="SVGID_00000158715228201324297480000008672373267693620641_" gradientUnits="userSpaceOnUse" x1="128.06" x2="358.856" xlink:href="#lg4" y1="168.921" y2="399.716"/><linearGradient id="SVGID_00000127746076075714487200000007979901480639560333_" gradientUnits="userSpaceOnUse" x1="377.388" x2="116.132" xlink:href="#lg4" y1="418.248" y2="156.993"/><linearGradient id="lg5"><stop offset="0" stop-color="#fe0364" stop-opacity="0"/><stop offset=".2343" stop-color="#f90362" stop-opacity=".234"/><stop offset=".5173" stop-color="#ea035b" stop-opacity=".517"/><stop offset=".8243" stop-color="#d20250" stop-opacity=".824"/><stop offset="1" stop-color="#c00148"/></linearGradient><linearGradient id="SVGID_00000177464645283805641230000001451134572559547820_" gradientUnits="userSpaceOnUse" x1="128.183" x2="78.282" xlink:href="#lg5" y1="209.215" y2="174.997"/><linearGradient id="SVGID_00000181080862642735837420000004333161050333377981_" gradientUnits="userSpaceOnUse" x1="256" x2="256" xlink:href="#lg5" y1="299.507" y2="545.554"/><linearGradient id="SVGID_00000173142861133799204640000005254461399245251988_" gradientTransform="matrix(.707 -.707 .707 .707 1872.508 -69.189)" gradientUnits="userSpaceOnUse" x1="-1401.88" x2="-1401.88" xlink:href="#lg5" y1="-881.561" y2="-622.57"/><linearGradient id="SVGID_00000158733479148750699040000011724713772788716448_" gradientTransform="matrix(-1 0 0 -1 2640 -1616)" gradientUnits="userSpaceOnUse" x1="2294.316" x2="2456.101" xlink:href="#lg3" y1="-2002.544" y2="-1840.76"/><linearGradient id="lg6"><stop offset="0" stop-color="#dbd5ef" stop-opacity="0"/><stop offset=".2853" stop-color="#d9d2ee" stop-opacity=".285"/><stop offset=".4739" stop-color="#d4c9e9" stop-opacity=".474"/><stop offset=".6346" stop-color="#cbbae2" stop-opacity=".635"/><stop offset=".7795" stop-color="#bfa5d7" stop-opacity=".78"/><stop offset=".9126" stop-color="#af8aca" stop-opacity=".913"/><stop offset="1" stop-color="#a274bf"/></linearGradient><linearGradient id="SVGID_00000174598667170210026470000016020755312483066795_" gradientUnits="userSpaceOnUse" x1="239.226" x2="203.849" xlink:href="#lg6" y1="247.763" y2="144.252"/><linearGradient id="SVGID_00000003084301121777426950000016529001754188935057_" gradientUnits="userSpaceOnUse" x1="183.996" x2="118.482" xlink:href="#lg6" y1="262.292" y2="230.845"/><linearGradient id="SVGID_00000078762976443135338830000013023134527506363546_" gradientUnits="userSpaceOnUse" x1="419.217" x2="422.782" xlink:href="#lg5" y1="215.02" y2="179.139"/><linearGradient id="lg7"><stop offset="0" stop-color="#fef0ae"/><stop offset="1" stop-color="#fac600"/></linearGradient><linearGradient id="SVGID_00000069380144236009491900000008783852370574606983_" gradientUnits="userSpaceOnUse" x1="430.446" x2="434.294" xlink:href="#lg7" y1="83.089" y2="180.935"/><linearGradient id="lg8"><stop offset="0" stop-color="#fe9738" stop-opacity="0"/><stop offset="1" stop-color="#fe9738"/></linearGradient><linearGradient id="SVGID_00000067207097662454596630000007442695909040853139_" gradientUnits="userSpaceOnUse" x1="442.936" x2="446.234" xlink:href="#lg8" y1="158.657" y2="207.58"/><linearGradient id="SVGID_00000074433290442150045780000000754108685204761497_" gradientUnits="userSpaceOnUse" x1="453.372" x2="519.335" xlink:href="#lg8" y1="124.013" y2="103.124"/><linearGradient id="SVGID_00000034787327942509601000000005741477733397922714_" gradientTransform="matrix(-1 0 0 1 -31.29 0)" gradientUnits="userSpaceOnUse" x1="-112.845" x2="-108.997" xlink:href="#lg7" y1="83.089" y2="180.935"/><linearGradient id="SVGID_00000113322856908116405720000012273529926663680649_" gradientTransform="matrix(-1 0 0 1 -31.29 0)" gradientUnits="userSpaceOnUse" x1="-100.354" x2="-97.056" xlink:href="#lg8" y1="158.657" y2="207.58"/><linearGradient id="SVGID_00000125589786646952506780000007452268726699172278_" gradientTransform="matrix(-1 0 0 1 -31.29 0)" gradientUnits="userSpaceOnUse" x1="-89.919" x2="-23.955" xlink:href="#lg8" y1="124.013" y2="103.124"/><linearGradient id="SVGID_00000098185963190003941640000017052456490804406410_" gradientUnits="userSpaceOnUse" x1="241.61" x2="238.046" xlink:href="#lg6" y1="340.159" y2="295.248"/><linearGradient id="SVGID_00000102505890496644005350000005926411658769203845_" gradientUnits="userSpaceOnUse" x1="190.992" x2="190.992" y1="291.594" y2="301.581"><stop offset="0" stop-color="#b3dafe"/><stop offset="1" stop-color="#0182fc"/></linearGradient><linearGradient id="SVGID_00000093135506116103034990000000773379789602436752_" gradientUnits="userSpaceOnUse" x1="306.966" x2="246.693" xlink:href="#lg6" y1="330.919" y2="307.334"/><linearGradient id="SVGID_00000074422868077437495130000017848289998608953244_" gradientUnits="userSpaceOnUse" x1="341.044" x2="299.989" xlink:href="#lg6" y1="296.775" y2="261.398"/><linearGradient id="SVGID_00000178204106162572564370000008066747429853007291_" gradientUnits="userSpaceOnUse" x1="297.859" x2="313.171" xlink:href="#lg1" y1="238.405" y2="253.716"/><linearGradient id="SVGID_00000114042706025761128680000000468799573518655899_" gradientUnits="userSpaceOnUse" x1="283.711" x2="266.192" xlink:href="#lg2" y1="267.283" y2="284.803"/><linearGradient id="SVGID_00000017484762356605461520000005023084742787947150_" gradientTransform="matrix(0 1 -1 0 1082.994 570.994)" gradientUnits="userSpaceOnUse" x1="-245.638" x2="-233.974" xlink:href="#lg1" y1="785.411" y2="797.075"/><linearGradient id="SVGID_00000127732057782686086500000003075492861603163041_" gradientTransform="matrix(0 1 -1 0 1082.994 570.994)" gradientUnits="userSpaceOnUse" x1="-256.416" x2="-269.763" xlink:href="#lg2" y1="807.411" y2="820.757"/><linearGradient id="SVGID_00000059299026608761966680000006123285374050759097_" gradientUnits="userSpaceOnUse" x1="818.474" x2="154.131" xlink:href="#lg6" y1="568.845" y2="113.342"/><linearGradient id="SVGID_00000183950388544997200370000014031648695625711746_" gradientUnits="userSpaceOnUse" x1="712.443" x2="48.099" xlink:href="#lg6" y1="723.49" y2="267.987"/><linearGradient id="SVGID_00000077291078866912396520000009628861639068484274_" gradientUnits="userSpaceOnUse" x1="801.809" x2="137.465" xlink:href="#lg6" y1="593.151" y2="137.649"/><linearGradient id="SVGID_00000007423225120703513560000009602443974420231837_" gradientUnits="userSpaceOnUse" x1="793.197" x2="128.853" xlink:href="#lg6" y1="605.712" y2="150.209"/><linearGradient id="SVGID_00000150063789514722709630000017846397758589384323_" gradientUnits="userSpaceOnUse" x1="737.72" x2="73.377" xlink:href="#lg6" y1="686.623" y2="231.12"/><linearGradient id="SVGID_00000090270667840690071840000000435723793375712683_" gradientUnits="userSpaceOnUse" x1="823.447" x2="159.103" xlink:href="#lg6" y1="561.593" y2="106.09"/><linearGradient id="SVGID_00000146463018104864741660000011946722398755639185_" gradientUnits="userSpaceOnUse" x1="707.471" x2="43.127" xlink:href="#lg6" y1="730.742" y2="275.239"/><linearGradient id="SVGID_00000120525308949743883960000018262660161676081543_" gradientUnits="userSpaceOnUse" x1="829.547" x2="165.203" xlink:href="#lg6" y1="552.696" y2="97.193"/><linearGradient id="SVGID_00000128454411803407965730000012762972006907113117_" gradientUnits="userSpaceOnUse" x1="701.37" x2="37.027" xlink:href="#lg6" y1="739.639" y2="284.136"/><linearGradient id="SVGID_00000165204384974840052910000014798238856790495677_" gradientUnits="userSpaceOnUse" x1="760.487" x2="96.143" xlink:href="#lg6" y1="653.419" y2="197.916"/><linearGradient id="SVGID_00000116220818154482877010000002437201860595105206_" gradientUnits="userSpaceOnUse" x1="770.431" x2="106.087" xlink:href="#lg6" y1="638.916" y2="183.413"/><linearGradient id="SVGID_00000142155011585179725040000002753007029499982500_" gradientUnits="userSpaceOnUse" x1="244.776" x2="265.024" xlink:href="#lg7" y1="285.636" y2="305.884"/><linearGradient id="SVGID_00000140718637595104018200000015150181936220448146_" gradientUnits="userSpaceOnUse" x1="256" x2="256" xlink:href="#lg8" y1="297.093" y2="318.679"/><linearGradient id="SVGID_00000050639867985276569930000000110458536896402335_" gradientTransform="matrix(.707 -.707 .707 .707 1872.508 -69.189)" gradientUnits="userSpaceOnUse" x1="-1401.88" x2="-1401.88" xlink:href="#lg8" y1="-883.976" y2="-861.255"/><g><g><g><path d="m214.405 455.19h-85.986c-15.709 11.035-29.323 23.325-39.571 36.272-1.086 1.372-2.124 2.743-3.111 4.099h67.975c.887-1.348 1.886-2.72 2.978-4.099 12.648-15.981 35.414-29.783 57.715-36.272z" fill="url(#SVGID_1_)"/><path d="m214.405 455.19h-85.986c-15.709 11.035-29.323 23.325-39.571 36.272-1.086 1.372-2.124 2.743-3.111 4.099h67.975c.887-1.348 1.886-2.72 2.978-4.099 12.648-15.981 35.414-29.783 57.715-36.272z" fill="url(#SVGID_00000026845453201199027880000000718083446171906734_)"/><g><path d="m161.849 512h-76.935c-5.806 0-10.513-4.707-10.513-10.513 0-4.971 3.481-9.262 8.345-10.287l5.542-1.168c23.142-4.878 47.047-4.878 70.188 0l5.542 1.168c4.864 1.025 8.345 5.317 8.345 10.287 0 5.806-4.707 10.513-10.514 10.513z" fill="url(#SVGID_00000093869593790480013160000016807228752134733469_)"/><path d="m161.849 512c5.806 0 10.513-4.707 10.513-10.513 0-4.971-3.481-9.262-8.345-10.287l-5.542-1.168c-11.571-2.439-23.333-3.658-35.094-3.658v25.627h38.468z" fill="url(#SVGID_00000026121013761583677060000011675660547884745648_)"/><path d="m74.401 501.487c0 5.806 4.707 10.513 10.513 10.513h76.935c5.806 0 10.513-4.707 10.513-10.513 0-3.022-1.292-5.787-3.393-7.725h-91.175c-2.102 1.938-3.393 4.703-3.393 7.725z" fill="url(#SVGID_00000047030195686383540180000011625820936487780527_)"/></g></g><g><path d="m355.31 491.462c1.092 1.379 2.091 2.751 2.978 4.099h67.975c-.987-1.356-2.025-2.727-3.111-4.099-10.247-12.948-23.861-25.237-39.571-36.272h-85.986c22.301 6.489 45.067 20.291 57.715 36.272z" fill="url(#SVGID_00000073712658871737946510000011537648888144600765_)"/><path d="m355.31 491.462c1.092 1.379 2.091 2.751 2.978 4.099h67.975c-.987-1.356-2.025-2.727-3.111-4.099-10.247-12.948-23.861-25.237-39.571-36.272h-85.986c22.301 6.489 45.067 20.291 57.715 36.272z" fill="url(#SVGID_00000104700091199364725910000006509481826537299083_)"/><g><path d="m427.086 512h-76.935c-5.806 0-10.513-4.707-10.513-10.513 0-4.971 3.481-9.262 8.345-10.287l5.542-1.168c23.142-4.878 47.047-4.878 70.188 0l5.542 1.168c4.864 1.025 8.345 5.317 8.345 10.287-.001 5.806-4.708 10.513-10.514 10.513z" fill="url(#SVGID_00000043442041354165860790000010935636402457343130_)"/><path d="m427.086 512c5.806 0 10.513-4.707 10.513-10.513 0-4.971-3.481-9.262-8.345-10.287l-5.542-1.168c-11.571-2.439-23.333-3.658-35.094-3.658v25.626z" fill="url(#SVGID_00000140709120810495562880000007460989402136129948_)"/><path d="m339.637 501.487c0 5.806 4.707 10.513 10.513 10.513h76.935c5.806 0 10.513-4.707 10.513-10.513 0-3.022-1.292-5.787-3.393-7.725h-91.175c-2.101 1.938-3.393 4.703-3.393 7.725z" fill="url(#SVGID_00000104668238429010161120000001746275117644119482_)"/></g></g></g><g><path d="m378.594 93.083-23.845-23.845c-5.289-5.288-8.201-12.32-8.201-19.8 0-9.374-7.627-17.001-17.001-17.001h-21.793c-16.573 0-32.156-6.454-43.877-18.174-2.106-2.104-4.902-3.263-7.877-3.263s-5.771 1.159-7.875 3.263c-11.721 11.721-27.304 18.175-43.877 18.175h-21.793c-9.375 0-17.001 7.627-17.001 17.001 0 7.479-2.913 14.512-8.201 19.8l-23.845 23.845-7.778-7.777 23.845-23.845c3.211-3.212 4.979-7.481 4.979-12.022 0-15.439 12.562-28.001 28.001-28.001h21.793c13.635 0 26.456-5.311 36.099-14.953 4.18-4.182 9.74-6.486 15.653-6.486s11.473 2.304 15.654 6.485c9.643 9.642 22.463 14.952 36.099 14.952h21.793c15.44 0 28.001 12.562 28.001 28.001 0 4.541 1.769 8.811 4.979 12.022l23.845 23.845z" fill="url(#SVGID_00000020376846123459644790000017360848058792880554_)"/></g><g><g><circle cx="256" cy="296.86" fill="url(#SVGID_00000158715228201324297480000008672373267693620641_)" r="209.158"/><circle cx="256" cy="296.86" fill="url(#SVGID_00000127746076075714487200000007979901480639560333_)" r="173.436"/><circle cx="256" cy="296.86" fill="url(#SVGID_00000177464645283805641230000001451134572559547820_)" r="209.158"/><path d="m46.842 296.86c0 115.514 93.643 209.158 209.158 209.158s209.158-93.644 209.158-209.158c0-25.018-4.407-49.002-12.463-71.239h-393.391c-8.055 22.237-12.462 46.222-12.462 71.239z" fill="url(#SVGID_00000181080862642735837420000004333161050333377981_)"/><path d="m108.103 444.758c81.681 81.681 214.113 81.682 295.795 0 81.681-81.681 81.681-214.114 0-295.795-17.69-17.69-37.766-31.533-59.186-41.561l-278.17 278.17c10.028 21.42 23.87 41.495 41.561 59.186z" fill="url(#SVGID_00000173142861133799204640000005254461399245251988_)"/></g><g><circle cx="256" cy="296.86" fill="url(#SVGID_00000158733479148750699040000011724713772788716448_)" r="146.617"/><path d="m402.617 296.86c0-80.974-65.643-146.617-146.617-146.617s-146.617 65.643-146.617 146.617c0 17.537 3.089 34.35 8.736 49.937h275.762c5.647-15.587 8.736-32.399 8.736-49.937z" fill="url(#SVGID_00000174598667170210026470000016020755312483066795_)"/><path d="m359.674 193.186c-57.257-57.257-150.09-57.258-207.348 0-57.257 57.257-57.257 150.091 0 207.348 12.401 12.401 26.473 22.104 41.488 29.134l194.993-194.993c-7.029-15.015-16.732-29.088-29.133-41.489z" fill="url(#SVGID_00000003084301121777426950000016529001754188935057_)"/></g></g><path d="m395.877 161.626 52.112 52.112c-9.764-22.571-23.705-43.763-41.8-62.425z" fill="url(#SVGID_00000078762976443135338830000013023134527506363546_)"/><g><g><path d="m483.223 77.458c36.294 36.294 38.563 92.869 5.067 126.365s-164.927-97.936-131.432-131.432 90.071-31.227 126.365 5.067z" fill="url(#SVGID_00000069380144236009491900000008783852370574606983_)"/><path d="m488.29 203.823c33.495-33.495 31.227-90.071-5.067-126.365-10.31-10.31-22.259-17.867-34.85-22.645l-77.39 77.39c32.323 45.426 95.522 93.405 117.307 71.62z" fill="url(#SVGID_00000067207097662454596630000007442695909040853139_)"/><path d="m356.858 72.391c-.423.423-.801.872-1.171 1.325l131.278 131.278c.453-.371.902-.748 1.325-1.171 33.495-33.495 31.227-90.071-5.067-126.365s-92.869-38.562-126.365-5.067z" fill="url(#SVGID_00000074433290442150045780000000754108685204761497_)"/></g><g><path d="m28.777 77.458c-36.294 36.294-38.563 92.869-5.067 126.365s164.927-97.937 131.432-131.432-90.071-31.227-126.365 5.067z" fill="url(#SVGID_00000034787327942509601000000005741477733397922714_)"/><path d="m23.71 203.823c-33.495-33.495-31.227-90.071 5.067-126.365 10.31-10.31 22.259-17.867 34.85-22.645l77.39 77.39c-32.323 45.426-95.522 93.405-117.307 71.62z" fill="url(#SVGID_00000113322856908116405720000012273529926663680649_)"/><path d="m155.142 72.391c.423.423.801.872 1.171 1.325l-131.278 131.278c-.453-.371-.902-.748-1.325-1.171-33.495-33.495-31.227-90.071 5.067-126.365s92.869-38.562 126.365-5.067z" fill="url(#SVGID_00000125589786646952506780000007452268726699172278_)"/></g></g><path d="m129.151 300.862 141.843 141.843c30.814-3.149 60.816-16.035 85.028-38.656l-103.188-103.187z" fill="url(#SVGID_00000098185963190003941640000017052456490804406410_)"/><path d="m254.743 296.86c0-2.846-2.307-5.153-5.153-5.153h-117.196c-2.846 0-5.153 2.307-5.153 5.153s2.307 5.153 5.153 5.153h117.197c2.845 0 5.152-2.307 5.152-5.153z" fill="url(#SVGID_00000102505890496644005350000005926411658769203845_)"/><path d="m243.025 309.836 43.591 43.591c7.146 7.146 18.822 7.444 26.021.352.094-.093.188-.187.281-.281 7.092-7.199 6.794-18.875-.352-26.021l-43.591-43.591z" fill="url(#SVGID_00000093135506116103034990000000773379789602436752_)"/><path d="m243.025 309.836 102.867 102.867c4.782-3.72 9.388-7.774 13.782-12.168 46.968-46.968 55.398-117.87 25.311-173.441l-30.398-30.398z" fill="url(#SVGID_00000074422868077437495130000017848289998608953244_)"/><g><path d="m256 294.994-6.41-6.41 30.717-40c10.523-13.703 27.525-28.929 54.23-46.02l11.033-7.061c6.37-4.077 13.996 3.549 9.919 9.919l-7.061 11.033c-17.091 26.706-32.317 43.707-46.02 54.23l-40 30.717z" fill="url(#SVGID_00000178204106162572564370000008066747429853007291_)"/><path d="m311.503 262.914-23.423-23.423c-2.907 3.103-5.501 6.136-7.772 9.093l-30.717 40 6.41 6.41 6.41 6.41 40-30.717c2.956-2.272 5.989-4.866 9.092-7.773z" fill="url(#SVGID_00000114042706025761128680000000468799573518655899_)"/></g><g><path d="m254.473 293.467 4.883-4.883 30.472 23.401c10.439 8.016 22.039 20.968 35.058 41.313l5.379 8.405c3.106 4.853-2.704 10.662-7.557 7.557l-8.405-5.379c-20.344-13.02-33.296-24.619-41.313-35.058l-23.401-30.472z" fill="url(#SVGID_00000017484762356605461520000005023084742787947150_)"/><path d="m278.912 335.75 17.844-17.844c-2.364-2.215-4.674-4.191-6.927-5.921l-30.472-23.401-4.883 4.883-4.883 4.883 23.401 30.472c1.729 2.253 3.705 4.564 5.92 6.928z" fill="url(#SVGID_00000127732057782686086500000003075492861603163041_)"/></g><g><path d="m256 168.102c-2.846 0-5.153 2.307-5.153 5.153v19.866c0 2.846 2.307 5.153 5.153 5.153s5.153-2.307 5.153-5.153v-19.866c0-2.846-2.307-5.153-5.153-5.153z" fill="url(#SVGID_00000059299026608761966680000006123285374050759097_)"/><path d="m256 395.447c-2.846 0-5.153 2.307-5.153 5.153v19.866c0 2.846 2.307 5.153 5.153 5.153s5.153-2.307 5.153-5.153v-19.866c0-2.846-2.307-5.153-5.153-5.153z" fill="url(#SVGID_00000183950388544997200370000014031648695625711746_)"/><path d="m379.606 291.708h-19.866c-2.846 0-5.153 2.307-5.153 5.153s2.307 5.153 5.153 5.153h19.866c2.846 0 5.153-2.307 5.153-5.153s-2.307-5.153-5.153-5.153z" fill="url(#SVGID_00000077291078866912396520000009628861639068484274_)"/><path d="m198.659 187.238c-1.423-2.465-4.574-3.309-7.039-1.886s-3.309 4.574-1.886 7.039l9.933 17.205c1.423 2.465 4.574 3.309 7.039 1.886s3.309-4.574 1.886-7.039z" fill="url(#SVGID_00000007423225120703513560000009602443974420231837_)"/><path d="m312.332 384.125c-1.423-2.465-4.574-3.309-7.039-1.886s-3.309 4.574-1.886 7.039l9.933 17.205c1.423 2.465 4.574 3.309 7.039 1.886s3.309-4.574 1.886-7.039z" fill="url(#SVGID_00000150063789514722709630000017846397758589384323_)"/><path d="m348.418 249.453 17.205-9.933c2.465-1.423 3.309-4.574 1.886-7.039s-4.574-3.309-7.039-1.886l-17.205 9.933c-2.464 1.423-3.309 4.574-1.886 7.039 1.423 2.464 4.574 3.309 7.039 1.886z" fill="url(#SVGID_00000090270667840690071840000000435723793375712683_)"/><path d="m163.582 344.268-17.205 9.933c-2.464 1.423-3.309 4.574-1.886 7.039s4.574 3.309 7.039 1.886l17.205-9.933c2.465-1.423 3.309-4.574 1.886-7.039s-4.574-3.309-7.039-1.886z" fill="url(#SVGID_00000146463018104864741660000011946722398755639185_)"/><path d="m320.379 185.352c-2.465-1.423-5.616-.578-7.039 1.886l-9.933 17.205c-1.423 2.465-.578 5.616 1.886 7.039 2.465 1.423 5.616.579 7.039-1.886l9.933-17.205c1.423-2.465.579-5.616-1.886-7.039z" fill="url(#SVGID_00000120525308949743883960000018262660161676081543_)"/><path d="m206.706 382.239c-2.465-1.423-5.616-.579-7.039 1.886l-9.933 17.205c-1.423 2.465-.578 5.616 1.886 7.039 2.465 1.423 5.616.578 7.039-1.886l9.933-17.205c1.423-2.465.579-5.616-1.886-7.039z" fill="url(#SVGID_00000128454411803407965730000012762972006907113117_)"/><path d="m168.735 240.528-17.205-9.933c-2.465-1.423-5.616-.579-7.039 1.886s-.579 5.616 1.886 7.039l17.205 9.933c2.464 1.423 5.616.578 7.039-1.886 1.423-2.465.579-5.616-1.886-7.039z" fill="url(#SVGID_00000165204384974840052910000014798238856790495677_)"/><path d="m365.622 354.201-17.205-9.933c-2.464-1.423-5.616-.578-7.039 1.886-1.423 2.465-.579 5.616 1.886 7.039l17.205 9.933c2.465 1.423 5.616.579 7.039-1.886s.579-5.616-1.886-7.039z" fill="url(#SVGID_00000116220818154482877010000002437201860595105206_)"/></g><g><circle cx="256" cy="296.86" fill="url(#SVGID_00000142155011585179725040000002753007029499982500_)" r="18.35"/><path d="m237.65 296.86c0 10.134 8.215 18.35 18.35 18.35 10.134 0 18.35-8.215 18.35-18.35 0-2.195-.387-4.299-1.093-6.25h-34.513c-.707 1.951-1.094 4.056-1.094 6.25z" fill="url(#SVGID_00000140718637595104018200000015150181936220448146_)"/><path d="m243.025 309.836c7.166 7.166 18.784 7.166 25.95 0s7.166-18.784 0-25.95c-1.552-1.552-3.313-2.766-5.192-3.646l-24.404 24.404c.879 1.878 2.094 3.64 3.646 5.192z" fill="url(#SVGID_00000050639867985276569930000000110458536896402335_)"/></g></g><g/><g/><g/><g/><g/><g/><g/><g/><g/><g/><g/><g/><g/><g/><g/></svg>